<svg width="394" height="390" viewBox="0 0 394 390" fill="none" xmlns="http://www.w3.org/2000/svg">
<rect x="305.851" y="1.67383" width="86.1494" height="387.327" rx="43.0747" stroke="black" stroke-width="2"/>
<rect x="392" y="1.67383" width="86.1494" height="391" rx="43.0747" transform="rotate(90 392 1.67383)" stroke="black" stroke-width="2"/>
<path d="M196.501 89.8232C224.331 89.8235 246.921 112.792 246.921 141.162C246.921 169.532 224.331 192.501 196.501 192.501C168.671 192.501 146.08 169.532 146.08 141.162C146.08 112.792 168.671 89.8232 196.501 89.8232Z" stroke="black" stroke-width="2"/>
<path d="M196.83 193.808C221.743 193.808 246.42 198.561 269.539 207.806L271.771 208.714C294.788 218.248 315.768 232.084 333.589 249.472L335.303 251.165C352.919 268.781 367.007 289.592 376.817 312.476L377.754 314.697C381.719 324.27 384.909 334.119 387.305 344.15L387.772 346.158C392.998 369.107 373.458 388.637 349.593 388.638H348.208C325.593 388.638 307.699 369.887 298.601 348.672L298.174 347.66C292.661 334.351 284.582 322.258 274.396 312.072C264.21 301.886 252.117 293.807 238.809 288.294C225.916 282.954 212.126 280.124 198.181 279.952L196.83 279.944C182.425 279.944 168.161 282.781 154.853 288.294C141.544 293.807 129.451 301.886 119.265 312.072C109.397 321.94 101.506 333.597 96.0107 346.416L95.4863 347.66C86.5283 369.287 68.4268 388.637 45.4531 388.638H44.0684C20.389 388.638 0.967636 369.412 5.76953 346.696L5.8877 346.158C8.17728 336.103 11.2625 326.224 15.124 316.615L15.9062 314.697C25.4401 291.68 39.2762 270.701 56.6641 252.88L58.3574 251.165C75.9736 233.549 96.7839 219.461 119.668 209.65L121.89 208.714C145.649 198.873 171.114 193.808 196.83 193.808Z" stroke="black" stroke-width="2"/>
</svg>
