<svg width="50" height="49" viewBox="0 0 50 49" fill="none" xmlns="http://www.w3.org/2000/svg">
<rect x="38.8682" y="0.5" width="10.0943" height="48" rx="5.04717" stroke="black"/>
<rect x="48.9629" y="0.5" width="10.0943" height="48.4623" rx="5.04717" transform="rotate(90 48.9629 0.5)" stroke="black"/>
<path d="M24.7314 11.5944C28.0211 11.5944 30.7029 14.3112 30.7031 17.6813C30.7031 21.0516 28.0212 23.7692 24.7314 23.7692C21.4417 23.7692 18.7598 21.0516 18.7598 17.6813C18.76 14.3112 21.4418 11.5944 24.7314 11.5944Z" stroke="black"/>
<path d="M24.7725 24.6819C27.7608 24.6819 30.7219 25.2338 33.5068 26.3079L34.0615 26.5295C36.8224 27.6732 39.3468 29.3161 41.5088 31.3743L41.9365 31.7913C44.0494 33.9042 45.7532 36.3879 46.9629 39.1165L47.1982 39.6663C47.6569 40.7737 48.0319 41.911 48.3213 43.0686L48.4395 43.5657C49.0305 46.1616 46.826 48.4543 43.999 48.4543H43.8252C41.3248 48.4543 39.2516 46.4669 38.0928 44.0227L37.873 43.5286C37.205 41.9157 36.2452 40.441 35.043 39.178L34.7998 38.928C33.5653 37.6935 32.1138 36.6982 30.5195 35.9915L30.1992 35.8538C28.4788 35.1412 26.6346 34.7747 24.7725 34.7747C23.0266 34.7747 21.2969 35.0973 19.6699 35.7249L19.3467 35.8538C17.734 36.5218 16.259 37.4817 14.9961 38.6838L14.7461 38.928C13.5117 40.1624 12.5163 41.6132 11.8096 43.2073L11.6719 43.5286C10.568 46.1932 8.38763 48.4543 5.7207 48.4543H5.5459C2.80741 48.4541 0.653146 46.3024 1.05859 43.8079L1.10547 43.5657C1.37037 42.4023 1.72144 41.2577 2.15625 40.1418L2.34766 39.6663C3.49123 36.9054 5.13433 34.3809 7.19238 32.219L7.60938 31.7913C9.72235 29.6783 12.206 27.9747 14.9346 26.7649L15.4844 26.5295C18.4291 25.3099 21.5851 24.6819 24.7725 24.6819Z" stroke="black"/>
</svg>
