<svg width="50" height="49" viewBox="0 0 50 49" fill="none" xmlns="http://www.w3.org/2000/svg">
<rect x="38.8682" y="0.5" width="10.0943" height="48" rx="5.04717" stroke="white"/>
<rect x="48.9629" y="0.5" width="10.0943" height="48.4623" rx="5.04717" transform="rotate(90 48.9629 0.5)" stroke="white"/>
<path d="M24.7314 11.5944C28.0211 11.5944 30.7029 14.3112 30.7031 17.6813C30.7031 21.0516 28.0212 23.7692 24.7314 23.7692C21.4417 23.7692 18.7598 21.0516 18.7598 17.6813C18.76 14.3112 21.4418 11.5944 24.7314 11.5944Z" stroke="white"/>
<path d="M24.7725 24.6819C27.96 24.6819 31.1166 25.3097 34.0615 26.5295C37.0064 27.7494 39.6826 29.5373 41.9365 31.7913C44.1903 34.0451 45.9785 36.7215 47.1982 39.6663C47.7224 40.9317 48.1368 42.2365 48.4395 43.5657C49.0305 46.1616 46.826 48.4543 43.999 48.4543H43.8252C41.1582 48.4543 38.9769 46.1933 37.873 43.5286C37.1605 41.8083 36.1164 40.2447 34.7998 38.928C33.4831 37.6112 31.9196 36.5664 30.1992 35.8538C28.4788 35.1412 26.6346 34.7747 24.7725 34.7747C22.9106 34.7747 21.0669 35.1413 19.3467 35.8538C17.6263 36.5664 16.0628 37.6112 14.7461 38.928C13.4294 40.2447 12.3845 41.8082 11.6719 43.5286C10.568 46.1932 8.38763 48.4543 5.7207 48.4543H5.5459C2.71918 48.4541 0.514587 46.1614 1.10547 43.5657C1.40815 42.2364 1.8235 40.9317 2.34766 39.6663C3.56747 36.7214 5.35544 34.0452 7.60938 31.7913C9.86331 29.5373 12.5395 27.7494 15.4844 26.5295C18.4291 25.3099 21.5851 24.6819 24.7725 24.6819Z" stroke="white"/>
</svg>
